<svg xmlns="http://www.w3.org/2000/svg" xmlns:xlink="http://www.w3.org/1999/xlink" fill="none" version="1.1" width="24.300048828125" height="14.39990234375" viewBox="0 0 24.300048828125 14.39990234375"><defs><linearGradient x1="0" y1="0.5" x2="1" y2="0.5" id="master_svg0_391_061281"><stop offset="0%" stop-color="#D60010" stop-opacity="1"/><stop offset="100%" stop-color="#D60010" stop-opacity="0.5"/></linearGradient></defs><g><path d="M0 0C0 0 0 0 0 0L22.499998927116394 0C23.49411164798925 0 24.299999237060547 0.8058875890712959 24.299999237060547 1.8000003099441528L24.299999237060547 14.400002479553223C24.299999237060547 14.400002479553223 24.299999237060547 14.400002479553223 24.299999237060547 14.400002479553223L7.200001239776611 14.400002479553223C3.2235503562851835 14.400002479553223 4.90527396329193e-16 11.17645212326804 0 7.200001239776612Z" fill="url(#master_svg0_391_061281)" fill-opacity="1"/><g><g><path d="M3,10.090799952316285L3.606983,10.751159952316284L5.03615,8.324939952316285L4.6055600000000005,12.067569952316283L5.52025,12.067569952316283L5.84853,8.324939952316285L6.9997799999999994,10.090809952316285L7.15206,8.654949952316283L6.00199,6.804299952316284L7.44037,6.804299952316284L7.69849,6.020979952316284L6.78282,6.020979952316284L7.85861,3.113963952316284L7.04094,3.113963952316284L6.00199,6.020979952316284L6.58688,2.299999952316284L5.56206,2.299999952316284L5.15213,6.020979952316284L4.78606,3.113963952316284L4.02484,3.113963952316284L4.37115,6.020979952316284L3.717376,6.020979952316284L3.717326,6.804299952316284L4.84466,6.804299952316284L3,10.090799952316285ZM11.68088,6.020979952316284Q11.2766,6.355059952316284,10.86439,6.804299952316284L7.80042,6.804299952316284L8.05186,6.020979952316284L9.4771,6.020979952316284L9.62115,5.207009952316284L8.397369999999999,5.207009952316284L8.593969999999999,4.509329952316284L9.763829999999999,4.509329952316284L9.86632,3.9279299523162843L8.111509999999999,3.927919952316284L8.33369,3.113963952316284L10.02098,3.113963952316284L10.1538,2.299999952316284L10.95666,2.299999952316284L10.823360000000001,3.113963952316284L12.73584,3.113963952316284L12.42837,3.9279299523162843L10.68617,3.9279299523162843L10.58369,4.509329952316284L11.93561,4.509329952316284L11.7306,5.207009952316284L10.50057,5.207009952316284L10.38768,6.020979952316284L11.68088,6.020979952316284ZM7.70372,7.816919952316284L7.2612,10.894099952316283L6.82332,12.047219952316285L7.78716,12.047199952316284L8.188690000000001,10.894099952316283L8.30448,9.709899952316285L7.70372,7.816919952316284ZM11.03296,9.609189952316285Q11.45425,8.853089952316285,12.03233,8.041739952316284L11.83552,10.044479952316284L11.6387,12.047219952316285L9.61073,12.047219952316285L9.97485,11.246729952316285L10.8134,11.246729952316285L11.03296,9.609189952316285ZM15.5449,7.064539952316284L16.8164,7.064539952316284L16.1819,9.774039952316283L15.6609,10.602339952316283L16.816499999999998,10.602339952316283L17.2578,9.774039952316283L17.9207,7.064539952316284L18.4905,7.064539952316284L18.4904,10.602339952316283L20.4777,10.602339952316283L20.9284,9.774039952316283L19.522,9.774039952316283L19.522,7.064539952316284L20.6818,7.064539952316284L20.9746,6.218969952316284L18.7852,6.218969952316284L18.9411,4.9923499523162835L21.1065,4.992339952316284L21.3141,4.138819952316284L19.0564,4.138819952316284L19.3105,2.4000029523162842L18.2789,2.4000029523162842L18.061799999999998,4.138819952316284L16.816499999999998,4.138819952316284L16.9774,2.8704339523162843L16.0462,2.8704339523162843L15.7413,4.992339952316284L17.9207,4.9923499523162835L17.7628,6.218969952316284L15.8253,6.218969952316284L15.5449,7.064539952316284ZM13.6978,2.870434952316284L14.3157,4.827679952316284L15.1882,4.827679952316284L14.6914,2.870434952316284L13.6978,2.870434952316284ZM12.9936,12.097459952316283L13.9462,12.097459952316283L14.1946,10.602349952316285L15.0111,12.097459952316283L21.1501,12.097459952316283L21.5746,11.252999952316284L15.541,11.252999952316284L14.4636,9.316379952316284L15.1883,5.386899952316284L14.0737,6.218969952316284L12.9936,12.097459952316283Z" fill-rule="evenodd" fill="#FFFFFF" fill-opacity="1"/></g><g transform="matrix(0.9730923175811768,0.23041558265686035,-0.22444722056388855,0.974486231803894,0.9828449589277639,-1.9895448100811848)"><path d="M9,7.361729952316284L10.76434,10.336819952316283L11.7015,10.115249952316283Q11.95987,8.523009952316285,12.80983,6.564459952316284Q13.659790000000001,4.605909952316284,15.991240000000001,3.299999952316284Q14.57909,3.676888952316284,13.323550000000001,4.722959952316284Q12.06802,5.769029952316284,11.0205,8.061239952316285L10.1462,7.0907199523162845L9,7.361729952316284Z" fill="#FFD400" fill-opacity="1"/></g></g></g></svg>