<?xml version="1.0" standalone="no"?><!DOCTYPE svg PUBLIC "-//W3C//DTD SVG 1.1//EN" "http://www.w3.org/Graphics/SVG/1.1/DTD/svg11.dtd"><svg t="1694688219733" class="icon" viewBox="0 0 1920 1024" version="1.1" xmlns="http://www.w3.org/2000/svg" p-id="7839" xmlns:xlink="http://www.w3.org/1999/xlink" width="22.5" height="12"><path d="M0 512a512 512 0 0 1 512-512h896a512 512 0 0 1 0 1024H0z" fill="#E60012" p-id="7840"></path><path d="M742.272 236.48h-100.48V454.4h-176V236.48H365.184v529.728h100.48V541.952h176v224.256h100.48V236.48z m80 324.736c0 140.8 63.232 211.2 189.696 211.2 59.52 0 106.56-16.448 141.76-49.472 35.008-32.96 52.48-87.04 52.48-161.728V439.936c0-74.752-16.96-128.704-51.456-161.728-34.24-33.024-80.768-49.472-139.776-49.472-128.448 0-192.704 70.464-192.704 211.2V561.28z m261.248 91.712c-15.04 19.84-37.76 29.76-68.48 29.76-32.32 0-55.552-9.728-69.76-28.992-14.528-19.008-21.504-50.496-21.504-94.016V445.184c0-45.952 6.976-78.976 21.504-98.496 14.208-19.712 37.44-29.76 69.76-29.76 30.72 0 53.44 10.24 68.48 30.528 14.72 20.032 22.208 52.736 22.208 97.728v114.56c0 42.496-7.488 73.472-22.208 93.184z m540.736-328.96V236.48H1252.48v87.488h135.296v442.24h101.248v-442.24h135.232z" fill="#FFFFFF" p-id="7841"></path></svg>