<?xml version="1.0" standalone="no"?><!DOCTYPE svg PUBLIC "-//W3C//DTD SVG 1.1//EN" "http://www.w3.org/Graphics/SVG/1.1/DTD/svg11.dtd"><svg t="1694685173886" class="icon" viewBox="0 0 1901 1024" version="1.1" xmlns="http://www.w3.org/2000/svg" p-id="7703" xmlns:xlink="http://www.w3.org/1999/xlink" width="22.27734375" height="12"><path d="M0 512a512 512 0 0 1 512-512h877.714286a512 512 0 0 1 0 1024H0z" fill="#E60012" p-id="7704"></path><path d="M639.926857 249.563429H544.182857v315.977142l-185.929143-315.977142H262.509714v504.539428h95.744V438.857143l185.929143 315.245714H640V249.563429z m175.469714 83.382857h224.548572v-83.382857H719.579429v504.539428h320.219428V670.72h-224.548571V541.257143h191.707428V457.874286h-191.634285V333.019429z m863.524572-83.382857h-89.014857l-71.68 356.205714-77.604572-356.205714h-119.222857l-73.874286 356.205714-76.214857-356.205714h-95.670857l124.269714 504.539428h87.113143l91.428572-373.540571 92.16 373.540571h87.625143l120.685714-504.539428z" fill="#FFFFFF" p-id="7705"></path></svg>